# xmcd
#
# Track frame offsets:
# 150
# 14707
# 26260
# 35920
# 47012
# 57802
# 70595
# 83940
# 97620
# 111872
# 123810
# 131887
# 142337
# 154210
# 168065
# 180010
# 188675
# 200712
# 213830
# 223282
#
# Disc length: 3116 seconds
#
#
# Revision: 0
# Processed by: cddbd v1.5.2PL0 Copyright (c) Steve Scherf et al.
# Submitted via: FreeRIP 2.96 
#
DISCID=180c2a14
DTITLE=Cecilia - La incomparable
DYEAR=1995
DGENRE=Balada
TTITLE0=Baño de mar a medianoche
TTITLE1=Se ha puesto el sol
TTITLE2=Uno de tantos
TTITLE3=Aleluya
TTITLE4=Buen día tristeza
TTITLE5=Como una ola
TTITLE6=No pasa más
TTITLE7=Es la nostalgia
TTITLE8=Tango de las rosas
TTITLE9=Dilo calladito
TTITLE10=Quiero vivir
TTITLE11=Amor, mon amour, my love
TTITLE12=Último baile
TTITLE13=Estamos sola, guitarra
TTITLE14=Te perdí
TTITLE15=Un día de sol
TTITLE16=La media luna
TTITLE17=Todo ya lo se
TTITLE18=Serenate
TTITLE19=Puré de papas
EXTD=
EXTT0=
EXTT1=
EXTT2=
EXTT3=
EXTT4=
EXTT5=
EXTT6=
EXTT7=
EXTT8=
EXTT9=
EXTT10=
EXTT11=
EXTT12=
EXTT13=
EXTT14=
EXTT15=
EXTT16=
EXTT17=
EXTT18=
EXTT19=
PLAYORDER=
